<svg width="20" height="20" viewBox="0 0 20 20" fill="none" xmlns="http://www.w3.org/2000/svg">
<g id="Rocket-1" opacity="0.8">
<path id="Vector" d="M17.871 9.98797C17.871 10.4687 17.6351 10.9495 17.1634 11.1898C15.591 12.1513 12.6035 13.834 10.4021 14.9557C8.51523 15.9172 5.92077 17.039 4.11252 17.8402C3.95528 17.9204 3.71942 18.0005 3.56218 18.0005C3.2477 18.0005 2.8546 17.8402 2.61874 17.5999C2.22564 17.1992 2.14702 16.6384 2.30426 16.0775L3.95528 11.1097C4.0339 10.7892 4.34837 10.629 4.66285 10.629H8.59385C8.90832 10.629 9.2228 10.3886 9.2228 9.98797C9.2228 9.58734 8.98694 9.34697 8.59385 9.34697H4.66285C4.34837 9.34697 4.0339 9.10659 3.95528 8.78609L2.30426 3.81833C2.14702 3.33758 2.22564 2.7767 2.69736 2.37608C3.09046 1.97545 3.6408 1.89532 4.11252 2.1357C5.60629 2.7767 8.43661 4.0587 10.4021 5.02021C12.6035 6.14196 15.591 7.90471 17.1634 8.78609C17.6351 9.02647 17.871 9.50722 17.871 9.98797Z" fill="white"/>
</g>
</svg>
